<mxfile host="app.diagrams.net" modified="2023-08-20T10:51:43.343Z" agent="Mozilla/5.0 (Windows NT 10.0; Win64; x64; rv:109.0) Gecko/20100101 Firefox/116.0" etag="gOAms70sJiAxegSl3AF1" version="21.6.8" type="device">
  <diagram id="R2lEEEUBdFMjLlhIrx00" name="Page-1">
    <mxGraphModel dx="1434" dy="754" grid="1" gridSize="10" guides="1" tooltips="1" connect="1" arrows="1" fold="1" page="1" pageScale="1" pageWidth="850" pageHeight="1100" math="0" shadow="0" extFonts="Permanent Marker^https://fonts.googleapis.com/css?family=Permanent+Marker">
      <root>
        <mxCell id="0" />
        <mxCell id="1" parent="0" />
        <mxCell id="Q3JNExXYZaWPPEJVxahD-58" value="" style="rounded=0;whiteSpace=wrap;html=1;" parent="1" vertex="1">
          <mxGeometry x="30" y="20" width="800" height="810" as="geometry" />
        </mxCell>
        <mxCell id="Q3JNExXYZaWPPEJVxahD-51" style="rounded=0;orthogonalLoop=1;jettySize=auto;html=1;entryX=0;entryY=0.5;entryDx=0;entryDy=0;endArrow=none;endFill=0;exitX=1;exitY=0.3333333333333333;exitDx=0;exitDy=0;exitPerimeter=0;" parent="1" source="Q3JNExXYZaWPPEJVxahD-1" target="Q3JNExXYZaWPPEJVxahD-22" edge="1">
          <mxGeometry relative="1" as="geometry" />
        </mxCell>
        <mxCell id="Q3JNExXYZaWPPEJVxahD-1" value="CEO" style="shape=umlActor;verticalLabelPosition=bottom;verticalAlign=top;html=1;outlineConnect=0;fillColor=none;" parent="1" vertex="1">
          <mxGeometry x="60" y="475" width="30" height="60" as="geometry" />
        </mxCell>
        <mxCell id="Q3JNExXYZaWPPEJVxahD-27" style="edgeStyle=orthogonalEdgeStyle;orthogonalLoop=1;jettySize=auto;html=1;exitX=0;exitY=0.5;exitDx=0;exitDy=0;entryX=0.5;entryY=0;entryDx=0;entryDy=0;curved=1;endArrow=open;endFill=0;dashed=1;" parent="1" source="Q3JNExXYZaWPPEJVxahD-10" target="Q3JNExXYZaWPPEJVxahD-22" edge="1">
          <mxGeometry relative="1" as="geometry" />
        </mxCell>
        <mxCell id="Q3JNExXYZaWPPEJVxahD-28" value="&amp;lt;&amp;lt;extend&amp;gt;&amp;gt;" style="edgeLabel;html=1;align=center;verticalAlign=middle;resizable=0;points=[];" parent="Q3JNExXYZaWPPEJVxahD-27" vertex="1" connectable="0">
          <mxGeometry x="-0.0906" y="10" relative="1" as="geometry">
            <mxPoint as="offset" />
          </mxGeometry>
        </mxCell>
        <mxCell id="Q3JNExXYZaWPPEJVxahD-10" value="Enter a client" style="ellipse;whiteSpace=wrap;html=1;" parent="1" vertex="1">
          <mxGeometry x="367.5" y="240" width="125" height="50" as="geometry" />
        </mxCell>
        <mxCell id="Q3JNExXYZaWPPEJVxahD-11" value="Enter an intervention" style="ellipse;whiteSpace=wrap;html=1;" parent="1" vertex="1">
          <mxGeometry x="640" y="290" width="160" height="50" as="geometry" />
        </mxCell>
        <mxCell id="Q3JNExXYZaWPPEJVxahD-12" value="Enter an invoice" style="ellipse;whiteSpace=wrap;html=1;" parent="1" vertex="1">
          <mxGeometry x="610" y="110" width="160" height="50" as="geometry" />
        </mxCell>
        <mxCell id="Q3JNExXYZaWPPEJVxahD-13" value="Enter a purchase" style="ellipse;whiteSpace=wrap;html=1;" parent="1" vertex="1">
          <mxGeometry x="527.5" y="400" width="160" height="50" as="geometry" />
        </mxCell>
        <mxCell id="Q3JNExXYZaWPPEJVxahD-15" value="Enter a subcategory type" style="ellipse;whiteSpace=wrap;html=1;" parent="1" vertex="1">
          <mxGeometry x="527.5" y="760" width="160" height="50" as="geometry" />
        </mxCell>
        <mxCell id="Q3JNExXYZaWPPEJVxahD-16" value="Show treasury" style="ellipse;whiteSpace=wrap;html=1;" parent="1" vertex="1">
          <mxGeometry x="532.5" y="470" width="160" height="50" as="geometry" />
        </mxCell>
        <mxCell id="Q3JNExXYZaWPPEJVxahD-17" value="Show key indicators" style="ellipse;whiteSpace=wrap;html=1;" parent="1" vertex="1">
          <mxGeometry x="530" y="535" width="160" height="50" as="geometry" />
        </mxCell>
        <mxCell id="Q3JNExXYZaWPPEJVxahD-18" value="Show clients" style="ellipse;whiteSpace=wrap;html=1;" parent="1" vertex="1">
          <mxGeometry x="527.5" y="595" width="160" height="50" as="geometry" />
        </mxCell>
        <mxCell id="Q3JNExXYZaWPPEJVxahD-19" value="Generate tax certificates" style="ellipse;whiteSpace=wrap;html=1;" parent="1" vertex="1">
          <mxGeometry x="527.5" y="670" width="160" height="50" as="geometry" />
        </mxCell>
        <mxCell id="Q3JNExXYZaWPPEJVxahD-20" value="Enter a pending intervention" style="ellipse;whiteSpace=wrap;html=1;" parent="1" vertex="1">
          <mxGeometry x="290" y="110" width="180" height="50" as="geometry" />
        </mxCell>
        <mxCell id="Q3JNExXYZaWPPEJVxahD-21" value="Enter a pending invoice" style="ellipse;whiteSpace=wrap;html=1;" parent="1" vertex="1">
          <mxGeometry x="480" y="320" width="160" height="50" as="geometry" />
        </mxCell>
        <mxCell id="Q3JNExXYZaWPPEJVxahD-22" value="Enter" style="ellipse;whiteSpace=wrap;html=1;" parent="1" vertex="1">
          <mxGeometry x="170" y="280" width="120" height="50" as="geometry" />
        </mxCell>
        <mxCell id="Q3JNExXYZaWPPEJVxahD-23" value="Consult" style="ellipse;whiteSpace=wrap;html=1;" parent="1" vertex="1">
          <mxGeometry x="170" y="535" width="120" height="50" as="geometry" />
        </mxCell>
        <mxCell id="Q3JNExXYZaWPPEJVxahD-24" value="Execute" style="ellipse;whiteSpace=wrap;html=1;" parent="1" vertex="1">
          <mxGeometry x="170" y="670" width="120" height="50" as="geometry" />
        </mxCell>
        <mxCell id="Q3JNExXYZaWPPEJVxahD-25" value="Configure" style="ellipse;whiteSpace=wrap;html=1;" parent="1" vertex="1">
          <mxGeometry x="170" y="760" width="120" height="50" as="geometry" />
        </mxCell>
        <mxCell id="Q3JNExXYZaWPPEJVxahD-29" style="edgeStyle=orthogonalEdgeStyle;orthogonalLoop=1;jettySize=auto;html=1;exitX=0;exitY=0.5;exitDx=0;exitDy=0;curved=1;endArrow=open;endFill=0;dashed=1;entryX=1;entryY=0.5;entryDx=0;entryDy=0;" parent="1" source="Q3JNExXYZaWPPEJVxahD-11" target="Q3JNExXYZaWPPEJVxahD-10" edge="1">
          <mxGeometry relative="1" as="geometry">
            <mxPoint x="540" y="225" as="sourcePoint" />
            <mxPoint x="500" y="270" as="targetPoint" />
          </mxGeometry>
        </mxCell>
        <mxCell id="Q3JNExXYZaWPPEJVxahD-30" value="&amp;lt;&amp;lt;extend&amp;gt;&amp;gt;" style="edgeLabel;html=1;align=center;verticalAlign=middle;resizable=0;points=[];" parent="Q3JNExXYZaWPPEJVxahD-29" vertex="1" connectable="0">
          <mxGeometry x="-0.0906" y="10" relative="1" as="geometry">
            <mxPoint as="offset" />
          </mxGeometry>
        </mxCell>
        <mxCell id="Q3JNExXYZaWPPEJVxahD-31" style="edgeStyle=orthogonalEdgeStyle;orthogonalLoop=1;jettySize=auto;html=1;exitX=0;exitY=0.5;exitDx=0;exitDy=0;curved=1;endArrow=open;endFill=0;dashed=1;entryX=0;entryY=0;entryDx=0;entryDy=0;" parent="1" source="Q3JNExXYZaWPPEJVxahD-20" target="Q3JNExXYZaWPPEJVxahD-22" edge="1">
          <mxGeometry relative="1" as="geometry">
            <mxPoint x="540" y="285" as="sourcePoint" />
            <mxPoint x="320" y="290" as="targetPoint" />
          </mxGeometry>
        </mxCell>
        <mxCell id="Q3JNExXYZaWPPEJVxahD-32" value="&amp;lt;&amp;lt;extend&amp;gt;&amp;gt;" style="edgeLabel;html=1;align=center;verticalAlign=middle;resizable=0;points=[];" parent="Q3JNExXYZaWPPEJVxahD-31" vertex="1" connectable="0">
          <mxGeometry x="-0.0906" y="10" relative="1" as="geometry">
            <mxPoint as="offset" />
          </mxGeometry>
        </mxCell>
        <mxCell id="Q3JNExXYZaWPPEJVxahD-33" style="edgeStyle=orthogonalEdgeStyle;orthogonalLoop=1;jettySize=auto;html=1;exitX=0.5;exitY=1;exitDx=0;exitDy=0;curved=1;endArrow=open;endFill=0;dashed=1;entryX=1;entryY=0.5;entryDx=0;entryDy=0;" parent="1" source="Q3JNExXYZaWPPEJVxahD-12" target="Q3JNExXYZaWPPEJVxahD-11" edge="1">
          <mxGeometry relative="1" as="geometry">
            <mxPoint x="530" y="345" as="sourcePoint" />
            <mxPoint x="303" y="308" as="targetPoint" />
          </mxGeometry>
        </mxCell>
        <mxCell id="Q3JNExXYZaWPPEJVxahD-34" value="&amp;lt;&amp;lt;extend&amp;gt;&amp;gt;" style="edgeLabel;html=1;align=center;verticalAlign=middle;resizable=0;points=[];" parent="Q3JNExXYZaWPPEJVxahD-33" vertex="1" connectable="0">
          <mxGeometry x="-0.0906" y="10" relative="1" as="geometry">
            <mxPoint as="offset" />
          </mxGeometry>
        </mxCell>
        <mxCell id="Q3JNExXYZaWPPEJVxahD-35" style="edgeStyle=orthogonalEdgeStyle;orthogonalLoop=1;jettySize=auto;html=1;exitX=0;exitY=0.5;exitDx=0;exitDy=0;curved=1;endArrow=open;endFill=0;dashed=1;entryX=0.933;entryY=0.72;entryDx=0;entryDy=0;entryPerimeter=0;" parent="1" source="Q3JNExXYZaWPPEJVxahD-21" target="Q3JNExXYZaWPPEJVxahD-22" edge="1">
          <mxGeometry relative="1" as="geometry">
            <mxPoint x="520" y="405" as="sourcePoint" />
            <mxPoint x="303" y="308" as="targetPoint" />
          </mxGeometry>
        </mxCell>
        <mxCell id="Q3JNExXYZaWPPEJVxahD-36" value="&amp;lt;&amp;lt;extend&amp;gt;&amp;gt;" style="edgeLabel;html=1;align=center;verticalAlign=middle;resizable=0;points=[];" parent="Q3JNExXYZaWPPEJVxahD-35" vertex="1" connectable="0">
          <mxGeometry x="-0.0906" y="10" relative="1" as="geometry">
            <mxPoint as="offset" />
          </mxGeometry>
        </mxCell>
        <mxCell id="Q3JNExXYZaWPPEJVxahD-37" style="edgeStyle=orthogonalEdgeStyle;orthogonalLoop=1;jettySize=auto;html=1;exitX=0;exitY=0.5;exitDx=0;exitDy=0;curved=1;endArrow=open;endFill=0;dashed=1;entryX=1;entryY=1;entryDx=0;entryDy=0;" parent="1" source="Q3JNExXYZaWPPEJVxahD-13" target="Q3JNExXYZaWPPEJVxahD-22" edge="1">
          <mxGeometry relative="1" as="geometry">
            <mxPoint x="497" y="503" as="sourcePoint" />
            <mxPoint x="290" y="310" as="targetPoint" />
          </mxGeometry>
        </mxCell>
        <mxCell id="Q3JNExXYZaWPPEJVxahD-38" value="&amp;lt;&amp;lt;extend&amp;gt;&amp;gt;" style="edgeLabel;html=1;align=center;verticalAlign=middle;resizable=0;points=[];" parent="Q3JNExXYZaWPPEJVxahD-37" vertex="1" connectable="0">
          <mxGeometry x="-0.0906" y="10" relative="1" as="geometry">
            <mxPoint as="offset" />
          </mxGeometry>
        </mxCell>
        <mxCell id="Q3JNExXYZaWPPEJVxahD-39" style="edgeStyle=orthogonalEdgeStyle;orthogonalLoop=1;jettySize=auto;html=1;exitX=0;exitY=0.5;exitDx=0;exitDy=0;curved=1;endArrow=open;endFill=0;dashed=1;entryX=1;entryY=0;entryDx=0;entryDy=0;" parent="1" source="Q3JNExXYZaWPPEJVxahD-16" target="Q3JNExXYZaWPPEJVxahD-23" edge="1">
          <mxGeometry relative="1" as="geometry">
            <mxPoint x="550" y="430" as="sourcePoint" />
            <mxPoint x="302" y="333" as="targetPoint" />
          </mxGeometry>
        </mxCell>
        <mxCell id="Q3JNExXYZaWPPEJVxahD-40" value="&amp;lt;&amp;lt;extend&amp;gt;&amp;gt;" style="edgeLabel;html=1;align=center;verticalAlign=middle;resizable=0;points=[];" parent="Q3JNExXYZaWPPEJVxahD-39" vertex="1" connectable="0">
          <mxGeometry x="-0.0906" y="10" relative="1" as="geometry">
            <mxPoint as="offset" />
          </mxGeometry>
        </mxCell>
        <mxCell id="Q3JNExXYZaWPPEJVxahD-41" style="edgeStyle=orthogonalEdgeStyle;orthogonalLoop=1;jettySize=auto;html=1;exitX=0;exitY=0.5;exitDx=0;exitDy=0;curved=1;endArrow=open;endFill=0;dashed=1;entryX=1;entryY=0.5;entryDx=0;entryDy=0;" parent="1" source="Q3JNExXYZaWPPEJVxahD-17" target="Q3JNExXYZaWPPEJVxahD-23" edge="1">
          <mxGeometry relative="1" as="geometry">
            <mxPoint x="538" y="505" as="sourcePoint" />
            <mxPoint x="300" y="525" as="targetPoint" />
          </mxGeometry>
        </mxCell>
        <mxCell id="Q3JNExXYZaWPPEJVxahD-42" value="&amp;lt;&amp;lt;extend&amp;gt;&amp;gt;" style="edgeLabel;html=1;align=center;verticalAlign=middle;resizable=0;points=[];" parent="Q3JNExXYZaWPPEJVxahD-41" vertex="1" connectable="0">
          <mxGeometry x="-0.0906" y="10" relative="1" as="geometry">
            <mxPoint as="offset" />
          </mxGeometry>
        </mxCell>
        <mxCell id="Q3JNExXYZaWPPEJVxahD-43" style="edgeStyle=orthogonalEdgeStyle;orthogonalLoop=1;jettySize=auto;html=1;exitX=0;exitY=0.5;exitDx=0;exitDy=0;curved=1;endArrow=open;endFill=0;dashed=1;entryX=1;entryY=1;entryDx=0;entryDy=0;" parent="1" source="Q3JNExXYZaWPPEJVxahD-18" target="Q3JNExXYZaWPPEJVxahD-23" edge="1">
          <mxGeometry relative="1" as="geometry">
            <mxPoint x="548" y="570" as="sourcePoint" />
            <mxPoint x="282" y="543" as="targetPoint" />
          </mxGeometry>
        </mxCell>
        <mxCell id="Q3JNExXYZaWPPEJVxahD-44" value="&amp;lt;&amp;lt;extend&amp;gt;&amp;gt;" style="edgeLabel;html=1;align=center;verticalAlign=middle;resizable=0;points=[];" parent="Q3JNExXYZaWPPEJVxahD-43" vertex="1" connectable="0">
          <mxGeometry x="-0.0906" y="10" relative="1" as="geometry">
            <mxPoint as="offset" />
          </mxGeometry>
        </mxCell>
        <mxCell id="Q3JNExXYZaWPPEJVxahD-47" style="edgeStyle=orthogonalEdgeStyle;orthogonalLoop=1;jettySize=auto;html=1;exitX=0;exitY=0.5;exitDx=0;exitDy=0;curved=1;endArrow=open;endFill=0;dashed=1;entryX=1;entryY=0.5;entryDx=0;entryDy=0;" parent="1" source="Q3JNExXYZaWPPEJVxahD-19" target="Q3JNExXYZaWPPEJVxahD-24" edge="1">
          <mxGeometry relative="1" as="geometry">
            <mxPoint x="548" y="640" as="sourcePoint" />
            <mxPoint x="292" y="598" as="targetPoint" />
          </mxGeometry>
        </mxCell>
        <mxCell id="Q3JNExXYZaWPPEJVxahD-48" value="&amp;lt;&amp;lt;extend&amp;gt;&amp;gt;" style="edgeLabel;html=1;align=center;verticalAlign=middle;resizable=0;points=[];" parent="Q3JNExXYZaWPPEJVxahD-47" vertex="1" connectable="0">
          <mxGeometry x="-0.0906" y="10" relative="1" as="geometry">
            <mxPoint as="offset" />
          </mxGeometry>
        </mxCell>
        <mxCell id="Q3JNExXYZaWPPEJVxahD-49" style="edgeStyle=orthogonalEdgeStyle;orthogonalLoop=1;jettySize=auto;html=1;exitX=0;exitY=0.5;exitDx=0;exitDy=0;curved=1;endArrow=open;endFill=0;dashed=1;entryX=1;entryY=0.5;entryDx=0;entryDy=0;" parent="1" source="Q3JNExXYZaWPPEJVxahD-15" target="Q3JNExXYZaWPPEJVxahD-25" edge="1">
          <mxGeometry relative="1" as="geometry">
            <mxPoint x="538" y="775" as="sourcePoint" />
            <mxPoint x="302" y="827" as="targetPoint" />
          </mxGeometry>
        </mxCell>
        <mxCell id="Q3JNExXYZaWPPEJVxahD-50" value="&amp;lt;&amp;lt;extend&amp;gt;&amp;gt;" style="edgeLabel;html=1;align=center;verticalAlign=middle;resizable=0;points=[];" parent="Q3JNExXYZaWPPEJVxahD-49" vertex="1" connectable="0">
          <mxGeometry x="-0.0906" y="10" relative="1" as="geometry">
            <mxPoint as="offset" />
          </mxGeometry>
        </mxCell>
        <mxCell id="Q3JNExXYZaWPPEJVxahD-52" style="rounded=0;orthogonalLoop=1;jettySize=auto;html=1;entryX=0;entryY=0.5;entryDx=0;entryDy=0;endArrow=none;endFill=0;" parent="1" source="Q3JNExXYZaWPPEJVxahD-1" target="Q3JNExXYZaWPPEJVxahD-23" edge="1">
          <mxGeometry relative="1" as="geometry">
            <mxPoint x="90" y="370" as="sourcePoint" />
            <mxPoint x="180" y="315" as="targetPoint" />
          </mxGeometry>
        </mxCell>
        <mxCell id="Q3JNExXYZaWPPEJVxahD-53" style="rounded=0;orthogonalLoop=1;jettySize=auto;html=1;entryX=0;entryY=0.5;entryDx=0;entryDy=0;endArrow=none;endFill=0;" parent="1" source="Q3JNExXYZaWPPEJVxahD-1" target="Q3JNExXYZaWPPEJVxahD-24" edge="1">
          <mxGeometry relative="1" as="geometry">
            <mxPoint x="90" y="407" as="sourcePoint" />
            <mxPoint x="180" y="570" as="targetPoint" />
          </mxGeometry>
        </mxCell>
        <mxCell id="Q3JNExXYZaWPPEJVxahD-54" style="rounded=0;orthogonalLoop=1;jettySize=auto;html=1;entryX=0;entryY=0.5;entryDx=0;entryDy=0;endArrow=none;endFill=0;" parent="1" source="Q3JNExXYZaWPPEJVxahD-1" target="Q3JNExXYZaWPPEJVxahD-25" edge="1">
          <mxGeometry relative="1" as="geometry">
            <mxPoint x="100" y="417" as="sourcePoint" />
            <mxPoint x="190" y="580" as="targetPoint" />
          </mxGeometry>
        </mxCell>
        <mxCell id="Q3JNExXYZaWPPEJVxahD-59" value="FirmManagement" style="text;html=1;strokeColor=none;fillColor=none;align=center;verticalAlign=middle;whiteSpace=wrap;rounded=0;" parent="1" vertex="1">
          <mxGeometry x="60" y="20" width="60" height="30" as="geometry" />
        </mxCell>
        <mxCell id="Q3JNExXYZaWPPEJVxahD-61" value="Geolocalize client" style="ellipse;whiteSpace=wrap;html=1;" parent="1" vertex="1">
          <mxGeometry x="537.5" y="180" width="125" height="50" as="geometry" />
        </mxCell>
        <mxCell id="Q3JNExXYZaWPPEJVxahD-62" style="edgeStyle=orthogonalEdgeStyle;orthogonalLoop=1;jettySize=auto;html=1;exitX=0;exitY=0.5;exitDx=0;exitDy=0;entryX=0.5;entryY=0;entryDx=0;entryDy=0;curved=1;endArrow=open;endFill=0;dashed=1;" parent="1" source="Q3JNExXYZaWPPEJVxahD-61" target="Q3JNExXYZaWPPEJVxahD-10" edge="1">
          <mxGeometry relative="1" as="geometry">
            <mxPoint x="270" y="195" as="sourcePoint" />
            <mxPoint x="240" y="290" as="targetPoint" />
          </mxGeometry>
        </mxCell>
        <mxCell id="Q3JNExXYZaWPPEJVxahD-63" value="&amp;lt;&amp;lt;extend&amp;gt;&amp;gt;" style="edgeLabel;html=1;align=center;verticalAlign=middle;resizable=0;points=[];" parent="Q3JNExXYZaWPPEJVxahD-62" vertex="1" connectable="0">
          <mxGeometry x="-0.0906" y="10" relative="1" as="geometry">
            <mxPoint as="offset" />
          </mxGeometry>
        </mxCell>
        <mxCell id="Q3JNExXYZaWPPEJVxahD-68" style="edgeStyle=orthogonalEdgeStyle;orthogonalLoop=1;jettySize=auto;html=1;exitX=0;exitY=0;exitDx=0;exitDy=0;curved=1;endArrow=open;endFill=0;dashed=1;entryX=1;entryY=0.5;entryDx=0;entryDy=0;" parent="1" source="Q3JNExXYZaWPPEJVxahD-12" target="Q3JNExXYZaWPPEJVxahD-20" edge="1">
          <mxGeometry relative="1" as="geometry">
            <mxPoint x="698" y="215" as="sourcePoint" />
            <mxPoint x="620" y="135" as="targetPoint" />
          </mxGeometry>
        </mxCell>
        <mxCell id="Q3JNExXYZaWPPEJVxahD-69" value="&amp;lt;&amp;lt;extend&amp;gt;&amp;gt;" style="edgeLabel;html=1;align=center;verticalAlign=middle;resizable=0;points=[];" parent="Q3JNExXYZaWPPEJVxahD-68" vertex="1" connectable="0">
          <mxGeometry x="-0.0906" y="10" relative="1" as="geometry">
            <mxPoint as="offset" />
          </mxGeometry>
        </mxCell>
        <mxCell id="Q3JNExXYZaWPPEJVxahD-70" style="edgeStyle=orthogonalEdgeStyle;orthogonalLoop=1;jettySize=auto;html=1;exitX=0.5;exitY=1;exitDx=0;exitDy=0;curved=1;endArrow=open;endFill=0;dashed=1;entryX=1;entryY=0.5;entryDx=0;entryDy=0;" parent="1" source="Q3JNExXYZaWPPEJVxahD-11" target="Q3JNExXYZaWPPEJVxahD-18" edge="1">
          <mxGeometry relative="1" as="geometry">
            <mxPoint x="680" y="175" as="sourcePoint" />
            <mxPoint x="620" y="135" as="targetPoint" />
          </mxGeometry>
        </mxCell>
        <mxCell id="Q3JNExXYZaWPPEJVxahD-71" value="&amp;lt;&amp;lt;extend&amp;gt;&amp;gt;" style="edgeLabel;html=1;align=center;verticalAlign=middle;resizable=0;points=[];" parent="Q3JNExXYZaWPPEJVxahD-70" vertex="1" connectable="0">
          <mxGeometry x="-0.0906" y="10" relative="1" as="geometry">
            <mxPoint as="offset" />
          </mxGeometry>
        </mxCell>
        <mxCell id="tSOchU8Ipv_nxvcu53VK-3" style="rounded=0;orthogonalLoop=1;jettySize=auto;html=1;exitX=1;exitY=0.3333333333333333;exitDx=0;exitDy=0;exitPerimeter=0;endArrow=none;endFill=0;" edge="1" parent="1" source="tSOchU8Ipv_nxvcu53VK-1">
          <mxGeometry relative="1" as="geometry">
            <mxPoint x="170" y="560" as="targetPoint" />
          </mxGeometry>
        </mxCell>
        <mxCell id="tSOchU8Ipv_nxvcu53VK-4" style="orthogonalLoop=1;jettySize=auto;html=1;exitX=1;exitY=1;exitDx=0;exitDy=0;exitPerimeter=0;entryX=0;entryY=0.5;entryDx=0;entryDy=0;rounded=0;endArrow=none;endFill=0;" edge="1" parent="1" source="tSOchU8Ipv_nxvcu53VK-1" target="Q3JNExXYZaWPPEJVxahD-24">
          <mxGeometry relative="1" as="geometry" />
        </mxCell>
        <mxCell id="tSOchU8Ipv_nxvcu53VK-1" value="Internship" style="shape=umlActor;verticalLabelPosition=bottom;verticalAlign=top;html=1;outlineConnect=0;fillColor=none;" vertex="1" parent="1">
          <mxGeometry x="60" y="600" width="30" height="60" as="geometry" />
        </mxCell>
      </root>
    </mxGraphModel>
  </diagram>
</mxfile>
